<svg xmlns="http://www.w3.org/2000/svg" xmlns:xlink="http://www.w3.org/1999/xlink" width="169" zoomAndPan="magnify" viewBox="0 0 126.75 30.000001" height="40" preserveAspectRatio="xMidYMid meet" version="1.0"><defs><g/><clipPath id="5de90eb21d"><path d="M 16.972656 0 L 124.484375 0 L 124.484375 29.03125 L 16.972656 29.03125 Z M 16.972656 0 " clip-rule="nonzero"/></clipPath><clipPath id="79b486afc6"><path d="M 23.585938 0 L 117.820312 0 C 119.570312 0 121.253906 0.695312 122.492188 1.9375 C 123.734375 3.175781 124.429688 4.855469 124.429688 6.609375 L 124.429688 22.421875 C 124.429688 24.175781 123.734375 25.855469 122.492188 27.097656 C 121.253906 28.335938 119.570312 29.03125 117.820312 29.03125 L 23.585938 29.03125 C 21.832031 29.03125 20.148438 28.335938 18.910156 27.097656 C 17.671875 25.855469 16.972656 24.175781 16.972656 22.421875 L 16.972656 6.609375 C 16.972656 4.855469 17.671875 3.175781 18.910156 1.9375 C 20.148438 0.695312 21.832031 0 23.585938 0 Z M 23.585938 0 " clip-rule="nonzero"/></clipPath><clipPath id="3ee0b03b5d"><path d="M 2.078125 0 L 23.773438 0 L 23.773438 29.03125 L 2.078125 29.03125 Z M 2.078125 0 " clip-rule="nonzero"/></clipPath><clipPath id="12869ed908"><path d="M 8.6875 0 L 17.164062 0 C 18.917969 0 20.597656 0.695312 21.835938 1.9375 C 23.078125 3.175781 23.773438 4.855469 23.773438 6.609375 L 23.773438 22.421875 C 23.773438 24.175781 23.078125 25.855469 21.835938 27.097656 C 20.597656 28.335938 18.917969 29.03125 17.164062 29.03125 L 8.6875 29.03125 C 6.9375 29.03125 5.253906 28.335938 4.015625 27.097656 C 2.773438 25.855469 2.078125 24.175781 2.078125 22.421875 L 2.078125 6.609375 C 2.078125 4.855469 2.773438 3.175781 4.015625 1.9375 C 5.253906 0.695312 6.9375 0 8.6875 0 Z M 8.6875 0 " clip-rule="nonzero"/></clipPath><clipPath id="2cf19e219a"><path d="M 16.972656 0 L 25.273438 0 L 25.273438 29.03125 L 16.972656 29.03125 Z M 16.972656 0 " clip-rule="nonzero"/></clipPath></defs><g fill="#ffffff" fill-opacity="1"><g transform="translate(16.976185, 17.644883)"><g><path d="M 5.59375 -0.4375 C 5.59375 -0.363281 5.585938 -0.296875 5.578125 -0.234375 C 5.566406 -0.179688 5.550781 -0.132812 5.53125 -0.09375 C 5.507812 -0.0625 5.484375 -0.0351562 5.453125 -0.015625 C 5.429688 -0.00390625 5.40625 0 5.375 0 L 1.484375 0 C 1.378906 0 1.285156 -0.03125 1.203125 -0.09375 C 1.117188 -0.15625 1.078125 -0.269531 1.078125 -0.4375 L 1.078125 -7.671875 C 1.078125 -7.828125 1.117188 -7.9375 1.203125 -8 C 1.285156 -8.070312 1.378906 -8.109375 1.484375 -8.109375 L 5.328125 -8.109375 C 5.359375 -8.109375 5.382812 -8.097656 5.40625 -8.078125 C 5.4375 -8.066406 5.457031 -8.039062 5.46875 -8 C 5.488281 -7.957031 5.503906 -7.90625 5.515625 -7.84375 C 5.523438 -7.789062 5.53125 -7.722656 5.53125 -7.640625 C 5.53125 -7.566406 5.523438 -7.5 5.515625 -7.4375 C 5.503906 -7.382812 5.488281 -7.34375 5.46875 -7.3125 C 5.457031 -7.28125 5.4375 -7.253906 5.40625 -7.234375 C 5.382812 -7.210938 5.359375 -7.203125 5.328125 -7.203125 L 2.15625 -7.203125 L 2.15625 -4.671875 L 4.875 -4.671875 C 4.90625 -4.671875 4.929688 -4.660156 4.953125 -4.640625 C 4.984375 -4.617188 5.007812 -4.59375 5.03125 -4.5625 C 5.050781 -4.53125 5.066406 -4.484375 5.078125 -4.421875 C 5.085938 -4.359375 5.09375 -4.289062 5.09375 -4.21875 C 5.09375 -4.144531 5.085938 -4.078125 5.078125 -4.015625 C 5.066406 -3.960938 5.050781 -3.921875 5.03125 -3.890625 C 5.007812 -3.859375 4.984375 -3.832031 4.953125 -3.8125 C 4.929688 -3.800781 4.90625 -3.796875 4.875 -3.796875 L 2.15625 -3.796875 L 2.15625 -0.890625 L 5.375 -0.890625 C 5.40625 -0.890625 5.429688 -0.878906 5.453125 -0.859375 C 5.484375 -0.847656 5.507812 -0.820312 5.53125 -0.78125 C 5.550781 -0.75 5.566406 -0.703125 5.578125 -0.640625 C 5.585938 -0.585938 5.59375 -0.519531 5.59375 -0.4375 Z M 5.59375 -0.4375 "/></g></g></g><g fill="#ffffff" fill-opacity="1"><g transform="translate(23.240031, 17.644883)"><g><path d="M 6.484375 -1.140625 C 6.484375 -1.078125 6.484375 -1.019531 6.484375 -0.96875 C 6.484375 -0.914062 6.476562 -0.867188 6.46875 -0.828125 C 6.457031 -0.796875 6.441406 -0.765625 6.421875 -0.734375 C 6.398438 -0.703125 6.367188 -0.664062 6.328125 -0.625 C 6.285156 -0.582031 6.195312 -0.519531 6.0625 -0.4375 C 5.9375 -0.351562 5.773438 -0.269531 5.578125 -0.1875 C 5.378906 -0.101562 5.148438 -0.0351562 4.890625 0.015625 C 4.628906 0.0664062 4.347656 0.09375 4.046875 0.09375 C 3.515625 0.09375 3.035156 0.0078125 2.609375 -0.15625 C 2.191406 -0.332031 1.832031 -0.59375 1.53125 -0.9375 C 1.238281 -1.28125 1.007812 -1.703125 0.84375 -2.203125 C 0.6875 -2.710938 0.609375 -3.296875 0.609375 -3.953125 C 0.609375 -4.617188 0.691406 -5.210938 0.859375 -5.734375 C 1.035156 -6.265625 1.28125 -6.710938 1.59375 -7.078125 C 1.90625 -7.441406 2.28125 -7.71875 2.71875 -7.90625 C 3.15625 -8.101562 3.640625 -8.203125 4.171875 -8.203125 C 4.398438 -8.203125 4.625 -8.179688 4.84375 -8.140625 C 5.070312 -8.097656 5.28125 -8.039062 5.46875 -7.96875 C 5.65625 -7.90625 5.820312 -7.828125 5.96875 -7.734375 C 6.113281 -7.648438 6.210938 -7.578125 6.265625 -7.515625 C 6.328125 -7.460938 6.363281 -7.421875 6.375 -7.390625 C 6.394531 -7.367188 6.410156 -7.335938 6.421875 -7.296875 C 6.429688 -7.253906 6.4375 -7.207031 6.4375 -7.15625 C 6.445312 -7.101562 6.453125 -7.035156 6.453125 -6.953125 C 6.453125 -6.867188 6.445312 -6.796875 6.4375 -6.734375 C 6.4375 -6.679688 6.425781 -6.632812 6.40625 -6.59375 C 6.382812 -6.5625 6.363281 -6.535156 6.34375 -6.515625 C 6.320312 -6.492188 6.296875 -6.484375 6.265625 -6.484375 C 6.203125 -6.484375 6.117188 -6.523438 6.015625 -6.609375 C 5.910156 -6.691406 5.773438 -6.78125 5.609375 -6.875 C 5.453125 -6.96875 5.253906 -7.054688 5.015625 -7.140625 C 4.773438 -7.222656 4.492188 -7.265625 4.171875 -7.265625 C 3.804688 -7.265625 3.476562 -7.191406 3.1875 -7.046875 C 2.894531 -6.898438 2.640625 -6.6875 2.421875 -6.40625 C 2.210938 -6.132812 2.050781 -5.796875 1.9375 -5.390625 C 1.820312 -4.984375 1.765625 -4.523438 1.765625 -4.015625 C 1.765625 -3.492188 1.820312 -3.035156 1.9375 -2.640625 C 2.050781 -2.242188 2.207031 -1.914062 2.40625 -1.65625 C 2.613281 -1.394531 2.867188 -1.195312 3.171875 -1.0625 C 3.472656 -0.925781 3.816406 -0.859375 4.203125 -0.859375 C 4.515625 -0.859375 4.789062 -0.894531 5.03125 -0.96875 C 5.28125 -1.050781 5.488281 -1.140625 5.65625 -1.234375 C 5.820312 -1.335938 5.957031 -1.425781 6.0625 -1.5 C 6.175781 -1.582031 6.265625 -1.625 6.328125 -1.625 C 6.359375 -1.625 6.382812 -1.613281 6.40625 -1.59375 C 6.425781 -1.582031 6.441406 -1.5625 6.453125 -1.53125 C 6.460938 -1.5 6.46875 -1.453125 6.46875 -1.390625 C 6.476562 -1.328125 6.484375 -1.242188 6.484375 -1.140625 Z M 6.484375 -1.140625 "/></g></g></g><g fill="#ffffff" fill-opacity="1"><g transform="translate(30.08015, 17.644883)"><g><path d="M 9.890625 -0.15625 C 9.890625 -0.125 9.878906 -0.09375 9.859375 -0.0625 C 9.847656 -0.0390625 9.820312 -0.0234375 9.78125 -0.015625 C 9.738281 -0.00390625 9.679688 0.00390625 9.609375 0.015625 C 9.546875 0.0234375 9.460938 0.03125 9.359375 0.03125 C 9.265625 0.03125 9.179688 0.0234375 9.109375 0.015625 C 9.046875 0.00390625 8.992188 -0.00390625 8.953125 -0.015625 C 8.910156 -0.0234375 8.878906 -0.0390625 8.859375 -0.0625 C 8.847656 -0.09375 8.84375 -0.125 8.84375 -0.15625 L 8.84375 -7.21875 L 8.828125 -7.21875 L 5.9375 -0.125 C 5.925781 -0.101562 5.910156 -0.0820312 5.890625 -0.0625 C 5.867188 -0.0390625 5.832031 -0.0195312 5.78125 0 C 5.738281 0.0078125 5.6875 0.015625 5.625 0.015625 C 5.570312 0.0234375 5.503906 0.03125 5.421875 0.03125 C 5.328125 0.03125 5.25 0.0234375 5.1875 0.015625 C 5.125 0.015625 5.070312 0.0078125 5.03125 0 C 4.988281 -0.0195312 4.957031 -0.0390625 4.9375 -0.0625 C 4.914062 -0.0820312 4.898438 -0.101562 4.890625 -0.125 L 2.125 -7.21875 L 2.125 -0.15625 C 2.125 -0.125 2.113281 -0.09375 2.09375 -0.0625 C 2.082031 -0.0390625 2.054688 -0.0234375 2.015625 -0.015625 C 1.972656 -0.00390625 1.914062 0.00390625 1.84375 0.015625 C 1.78125 0.0234375 1.695312 0.03125 1.59375 0.03125 C 1.488281 0.03125 1.398438 0.0234375 1.328125 0.015625 C 1.265625 0.00390625 1.210938 -0.00390625 1.171875 -0.015625 C 1.140625 -0.0234375 1.113281 -0.0390625 1.09375 -0.0625 C 1.082031 -0.09375 1.078125 -0.125 1.078125 -0.15625 L 1.078125 -7.609375 C 1.078125 -7.785156 1.125 -7.910156 1.21875 -7.984375 C 1.3125 -8.066406 1.410156 -8.109375 1.515625 -8.109375 L 2.171875 -8.109375 C 2.304688 -8.109375 2.421875 -8.09375 2.515625 -8.0625 C 2.617188 -8.039062 2.707031 -8.003906 2.78125 -7.953125 C 2.863281 -7.898438 2.925781 -7.828125 2.96875 -7.734375 C 3.019531 -7.648438 3.066406 -7.554688 3.109375 -7.453125 L 5.453125 -1.578125 L 5.484375 -1.578125 L 7.9375 -7.421875 C 7.976562 -7.546875 8.023438 -7.648438 8.078125 -7.734375 C 8.128906 -7.828125 8.1875 -7.898438 8.25 -7.953125 C 8.320312 -8.003906 8.394531 -8.039062 8.46875 -8.0625 C 8.550781 -8.09375 8.644531 -8.109375 8.75 -8.109375 L 9.4375 -8.109375 C 9.5 -8.109375 9.554688 -8.097656 9.609375 -8.078125 C 9.671875 -8.054688 9.71875 -8.023438 9.75 -7.984375 C 9.789062 -7.953125 9.820312 -7.90625 9.84375 -7.84375 C 9.875 -7.78125 9.890625 -7.703125 9.890625 -7.609375 Z M 9.890625 -0.15625 "/></g></g></g><g fill="#ffffff" fill-opacity="1"><g transform="translate(41.048145, 17.644883)"><g><path d="M 5.78125 -0.46875 C 5.78125 -0.382812 5.773438 -0.3125 5.765625 -0.25 C 5.753906 -0.195312 5.738281 -0.148438 5.71875 -0.109375 C 5.707031 -0.078125 5.6875 -0.0507812 5.65625 -0.03125 C 5.625 -0.0078125 5.585938 0 5.546875 0 L 1.078125 0 C 1.015625 0 0.960938 -0.00390625 0.921875 -0.015625 C 0.878906 -0.0351562 0.84375 -0.0625 0.8125 -0.09375 C 0.78125 -0.125 0.753906 -0.171875 0.734375 -0.234375 C 0.722656 -0.296875 0.71875 -0.375 0.71875 -0.46875 C 0.71875 -0.550781 0.71875 -0.625 0.71875 -0.6875 C 0.726562 -0.75 0.742188 -0.800781 0.765625 -0.84375 C 0.785156 -0.894531 0.8125 -0.945312 0.84375 -1 C 0.875 -1.050781 0.914062 -1.101562 0.96875 -1.15625 L 2.53125 -2.8125 C 2.894531 -3.195312 3.1875 -3.539062 3.40625 -3.84375 C 3.625 -4.15625 3.789062 -4.4375 3.90625 -4.6875 C 4.03125 -4.9375 4.109375 -5.160156 4.140625 -5.359375 C 4.179688 -5.566406 4.203125 -5.757812 4.203125 -5.9375 C 4.203125 -6.125 4.171875 -6.296875 4.109375 -6.453125 C 4.054688 -6.617188 3.972656 -6.757812 3.859375 -6.875 C 3.753906 -7 3.617188 -7.09375 3.453125 -7.15625 C 3.285156 -7.226562 3.09375 -7.265625 2.875 -7.265625 C 2.625 -7.265625 2.394531 -7.226562 2.1875 -7.15625 C 1.988281 -7.09375 1.8125 -7.019531 1.65625 -6.9375 C 1.5 -6.851562 1.367188 -6.773438 1.265625 -6.703125 C 1.171875 -6.628906 1.097656 -6.59375 1.046875 -6.59375 C 1.015625 -6.59375 0.988281 -6.597656 0.96875 -6.609375 C 0.945312 -6.628906 0.925781 -6.660156 0.90625 -6.703125 C 0.894531 -6.742188 0.882812 -6.796875 0.875 -6.859375 C 0.863281 -6.921875 0.859375 -6.992188 0.859375 -7.078125 C 0.859375 -7.140625 0.859375 -7.191406 0.859375 -7.234375 C 0.867188 -7.285156 0.878906 -7.328125 0.890625 -7.359375 C 0.898438 -7.390625 0.910156 -7.421875 0.921875 -7.453125 C 0.941406 -7.484375 0.976562 -7.519531 1.03125 -7.5625 C 1.082031 -7.601562 1.171875 -7.660156 1.296875 -7.734375 C 1.421875 -7.816406 1.570312 -7.894531 1.75 -7.96875 C 1.9375 -8.039062 2.140625 -8.097656 2.359375 -8.140625 C 2.585938 -8.191406 2.828125 -8.21875 3.078125 -8.21875 C 3.472656 -8.21875 3.816406 -8.160156 4.109375 -8.046875 C 4.398438 -7.941406 4.640625 -7.789062 4.828125 -7.59375 C 5.023438 -7.40625 5.171875 -7.179688 5.265625 -6.921875 C 5.367188 -6.671875 5.421875 -6.40625 5.421875 -6.125 C 5.421875 -5.863281 5.394531 -5.601562 5.34375 -5.34375 C 5.300781 -5.082031 5.203125 -4.800781 5.046875 -4.5 C 4.898438 -4.207031 4.6875 -3.878906 4.40625 -3.515625 C 4.132812 -3.148438 3.765625 -2.726562 3.296875 -2.25 L 2.015625 -0.921875 L 5.546875 -0.921875 C 5.578125 -0.921875 5.609375 -0.910156 5.640625 -0.890625 C 5.671875 -0.867188 5.695312 -0.835938 5.71875 -0.796875 C 5.738281 -0.765625 5.753906 -0.71875 5.765625 -0.65625 C 5.773438 -0.601562 5.78125 -0.539062 5.78125 -0.46875 Z M 5.78125 -0.46875 "/></g></g></g><g fill="#ffffff" fill-opacity="1"><g transform="translate(47.550017, 17.644883)"><g><path d="M 6.125 -2.3125 C 6.125 -2.164062 6.101562 -2.050781 6.0625 -1.96875 C 6.019531 -1.894531 5.960938 -1.859375 5.890625 -1.859375 L 4.984375 -1.859375 L 4.984375 -0.15625 C 4.984375 -0.125 4.972656 -0.09375 4.953125 -0.0625 C 4.929688 -0.0390625 4.898438 -0.0195312 4.859375 0 C 4.816406 0.0078125 4.765625 0.015625 4.703125 0.015625 C 4.640625 0.0234375 4.554688 0.03125 4.453125 0.03125 C 4.347656 0.03125 4.257812 0.0234375 4.1875 0.015625 C 4.125 0.015625 4.070312 0.0078125 4.03125 0 C 4 -0.0195312 3.972656 -0.0390625 3.953125 -0.0625 C 3.941406 -0.09375 3.9375 -0.125 3.9375 -0.15625 L 3.9375 -1.859375 L 0.59375 -1.859375 C 0.539062 -1.859375 0.492188 -1.863281 0.453125 -1.875 C 0.421875 -1.882812 0.390625 -1.90625 0.359375 -1.9375 C 0.335938 -1.976562 0.320312 -2.03125 0.3125 -2.09375 C 0.300781 -2.15625 0.296875 -2.238281 0.296875 -2.34375 C 0.296875 -2.414062 0.296875 -2.484375 0.296875 -2.546875 C 0.304688 -2.609375 0.316406 -2.664062 0.328125 -2.71875 C 0.335938 -2.769531 0.351562 -2.816406 0.375 -2.859375 C 0.394531 -2.910156 0.421875 -2.96875 0.453125 -3.03125 L 3.375 -7.953125 C 3.394531 -7.984375 3.425781 -8.007812 3.46875 -8.03125 C 3.507812 -8.0625 3.5625 -8.082031 3.625 -8.09375 C 3.6875 -8.113281 3.757812 -8.125 3.84375 -8.125 C 3.9375 -8.132812 4.046875 -8.140625 4.171875 -8.140625 C 4.316406 -8.140625 4.4375 -8.132812 4.53125 -8.125 C 4.632812 -8.113281 4.71875 -8.097656 4.78125 -8.078125 C 4.84375 -8.066406 4.890625 -8.046875 4.921875 -8.015625 C 4.960938 -7.992188 4.984375 -7.960938 4.984375 -7.921875 L 4.984375 -2.75 L 5.890625 -2.75 C 5.960938 -2.75 6.019531 -2.710938 6.0625 -2.640625 C 6.101562 -2.566406 6.125 -2.457031 6.125 -2.3125 Z M 3.9375 -7.203125 L 3.921875 -7.203125 L 1.28125 -2.75 L 3.9375 -2.75 Z M 3.9375 -7.203125 "/></g></g></g><g fill="#ffffff" fill-opacity="1"><g transform="translate(54.051891, 17.644883)"><g><path d="M 5.78125 -0.46875 C 5.78125 -0.382812 5.773438 -0.3125 5.765625 -0.25 C 5.753906 -0.195312 5.738281 -0.148438 5.71875 -0.109375 C 5.707031 -0.078125 5.6875 -0.0507812 5.65625 -0.03125 C 5.625 -0.0078125 5.585938 0 5.546875 0 L 1.078125 0 C 1.015625 0 0.960938 -0.00390625 0.921875 -0.015625 C 0.878906 -0.0351562 0.84375 -0.0625 0.8125 -0.09375 C 0.78125 -0.125 0.753906 -0.171875 0.734375 -0.234375 C 0.722656 -0.296875 0.71875 -0.375 0.71875 -0.46875 C 0.71875 -0.550781 0.71875 -0.625 0.71875 -0.6875 C 0.726562 -0.75 0.742188 -0.800781 0.765625 -0.84375 C 0.785156 -0.894531 0.8125 -0.945312 0.84375 -1 C 0.875 -1.050781 0.914062 -1.101562 0.96875 -1.15625 L 2.53125 -2.8125 C 2.894531 -3.195312 3.1875 -3.539062 3.40625 -3.84375 C 3.625 -4.15625 3.789062 -4.4375 3.90625 -4.6875 C 4.03125 -4.9375 4.109375 -5.160156 4.140625 -5.359375 C 4.179688 -5.566406 4.203125 -5.757812 4.203125 -5.9375 C 4.203125 -6.125 4.171875 -6.296875 4.109375 -6.453125 C 4.054688 -6.617188 3.972656 -6.757812 3.859375 -6.875 C 3.753906 -7 3.617188 -7.09375 3.453125 -7.15625 C 3.285156 -7.226562 3.09375 -7.265625 2.875 -7.265625 C 2.625 -7.265625 2.394531 -7.226562 2.1875 -7.15625 C 1.988281 -7.09375 1.8125 -7.019531 1.65625 -6.9375 C 1.5 -6.851562 1.367188 -6.773438 1.265625 -6.703125 C 1.171875 -6.628906 1.097656 -6.59375 1.046875 -6.59375 C 1.015625 -6.59375 0.988281 -6.597656 0.96875 -6.609375 C 0.945312 -6.628906 0.925781 -6.660156 0.90625 -6.703125 C 0.894531 -6.742188 0.882812 -6.796875 0.875 -6.859375 C 0.863281 -6.921875 0.859375 -6.992188 0.859375 -7.078125 C 0.859375 -7.140625 0.859375 -7.191406 0.859375 -7.234375 C 0.867188 -7.285156 0.878906 -7.328125 0.890625 -7.359375 C 0.898438 -7.390625 0.910156 -7.421875 0.921875 -7.453125 C 0.941406 -7.484375 0.976562 -7.519531 1.03125 -7.5625 C 1.082031 -7.601562 1.171875 -7.660156 1.296875 -7.734375 C 1.421875 -7.816406 1.570312 -7.894531 1.75 -7.96875 C 1.9375 -8.039062 2.140625 -8.097656 2.359375 -8.140625 C 2.585938 -8.191406 2.828125 -8.21875 3.078125 -8.21875 C 3.472656 -8.21875 3.816406 -8.160156 4.109375 -8.046875 C 4.398438 -7.941406 4.640625 -7.789062 4.828125 -7.59375 C 5.023438 -7.40625 5.171875 -7.179688 5.265625 -6.921875 C 5.367188 -6.671875 5.421875 -6.40625 5.421875 -6.125 C 5.421875 -5.863281 5.394531 -5.601562 5.34375 -5.34375 C 5.300781 -5.082031 5.203125 -4.800781 5.046875 -4.5 C 4.898438 -4.207031 4.6875 -3.878906 4.40625 -3.515625 C 4.132812 -3.148438 3.765625 -2.726562 3.296875 -2.25 L 2.015625 -0.921875 L 5.546875 -0.921875 C 5.578125 -0.921875 5.609375 -0.910156 5.640625 -0.890625 C 5.671875 -0.867188 5.695312 -0.835938 5.71875 -0.796875 C 5.738281 -0.765625 5.753906 -0.71875 5.765625 -0.65625 C 5.773438 -0.601562 5.78125 -0.539062 5.78125 -0.46875 Z M 5.78125 -0.46875 "/></g></g></g><g fill="#ffffff" fill-opacity="1"><g transform="translate(60.553763, 17.644883)"><g><path d="M 5.71875 -2.3125 C 5.71875 -1.945312 5.65625 -1.613281 5.53125 -1.3125 C 5.40625 -1.007812 5.21875 -0.75 4.96875 -0.53125 C 4.726562 -0.320312 4.429688 -0.160156 4.078125 -0.046875 C 3.722656 0.0664062 3.320312 0.125 2.875 0.125 C 2.601562 0.125 2.347656 0.0976562 2.109375 0.046875 C 1.878906 0.00390625 1.671875 -0.0390625 1.484375 -0.09375 C 1.296875 -0.15625 1.140625 -0.21875 1.015625 -0.28125 C 0.898438 -0.351562 0.828125 -0.398438 0.796875 -0.421875 C 0.765625 -0.453125 0.738281 -0.484375 0.71875 -0.515625 C 0.707031 -0.546875 0.691406 -0.582031 0.671875 -0.625 C 0.660156 -0.664062 0.648438 -0.71875 0.640625 -0.78125 C 0.640625 -0.84375 0.640625 -0.914062 0.640625 -1 C 0.640625 -1.15625 0.65625 -1.257812 0.6875 -1.3125 C 0.71875 -1.375 0.757812 -1.40625 0.8125 -1.40625 C 0.851562 -1.40625 0.925781 -1.367188 1.03125 -1.296875 C 1.144531 -1.234375 1.285156 -1.160156 1.453125 -1.078125 C 1.628906 -1.003906 1.832031 -0.929688 2.0625 -0.859375 C 2.300781 -0.796875 2.5625 -0.765625 2.84375 -0.765625 C 3.113281 -0.765625 3.351562 -0.800781 3.5625 -0.875 C 3.78125 -0.945312 3.957031 -1.046875 4.09375 -1.171875 C 4.238281 -1.304688 4.34375 -1.460938 4.40625 -1.640625 C 4.476562 -1.816406 4.515625 -2.007812 4.515625 -2.21875 C 4.515625 -2.445312 4.46875 -2.648438 4.375 -2.828125 C 4.289062 -3.015625 4.160156 -3.175781 3.984375 -3.3125 C 3.816406 -3.445312 3.601562 -3.550781 3.34375 -3.625 C 3.09375 -3.695312 2.8125 -3.734375 2.5 -3.734375 L 1.71875 -3.734375 C 1.6875 -3.734375 1.65625 -3.738281 1.625 -3.75 C 1.59375 -3.757812 1.566406 -3.78125 1.546875 -3.8125 C 1.523438 -3.851562 1.503906 -3.898438 1.484375 -3.953125 C 1.472656 -4.003906 1.46875 -4.078125 1.46875 -4.171875 C 1.46875 -4.242188 1.472656 -4.304688 1.484375 -4.359375 C 1.492188 -4.410156 1.507812 -4.453125 1.53125 -4.484375 C 1.5625 -4.515625 1.585938 -4.535156 1.609375 -4.546875 C 1.640625 -4.566406 1.675781 -4.578125 1.71875 -4.578125 L 2.421875 -4.578125 C 2.703125 -4.578125 2.953125 -4.613281 3.171875 -4.6875 C 3.390625 -4.757812 3.570312 -4.859375 3.71875 -4.984375 C 3.875 -5.117188 3.992188 -5.28125 4.078125 -5.46875 C 4.160156 -5.65625 4.203125 -5.863281 4.203125 -6.09375 C 4.203125 -6.257812 4.171875 -6.414062 4.109375 -6.5625 C 4.054688 -6.71875 3.972656 -6.851562 3.859375 -6.96875 C 3.753906 -7.082031 3.617188 -7.171875 3.453125 -7.234375 C 3.285156 -7.296875 3.09375 -7.328125 2.875 -7.328125 C 2.625 -7.328125 2.394531 -7.289062 2.1875 -7.21875 C 1.988281 -7.144531 1.8125 -7.066406 1.65625 -6.984375 C 1.5 -6.898438 1.367188 -6.820312 1.265625 -6.75 C 1.160156 -6.675781 1.085938 -6.640625 1.046875 -6.640625 C 1.015625 -6.640625 0.988281 -6.644531 0.96875 -6.65625 C 0.945312 -6.664062 0.925781 -6.6875 0.90625 -6.71875 C 0.894531 -6.75 0.882812 -6.789062 0.875 -6.84375 C 0.875 -6.90625 0.875 -6.984375 0.875 -7.078125 C 0.875 -7.140625 0.875 -7.191406 0.875 -7.234375 C 0.882812 -7.285156 0.894531 -7.328125 0.90625 -7.359375 C 0.914062 -7.398438 0.925781 -7.4375 0.9375 -7.46875 C 0.957031 -7.5 0.988281 -7.53125 1.03125 -7.5625 C 1.070312 -7.601562 1.148438 -7.660156 1.265625 -7.734375 C 1.390625 -7.816406 1.539062 -7.894531 1.71875 -7.96875 C 1.894531 -8.039062 2.097656 -8.097656 2.328125 -8.140625 C 2.566406 -8.191406 2.816406 -8.21875 3.078125 -8.21875 C 3.453125 -8.21875 3.78125 -8.171875 4.0625 -8.078125 C 4.351562 -7.984375 4.59375 -7.847656 4.78125 -7.671875 C 4.96875 -7.492188 5.109375 -7.28125 5.203125 -7.03125 C 5.296875 -6.789062 5.34375 -6.523438 5.34375 -6.234375 C 5.34375 -5.972656 5.3125 -5.734375 5.25 -5.515625 C 5.1875 -5.296875 5.085938 -5.101562 4.953125 -4.9375 C 4.828125 -4.769531 4.671875 -4.625 4.484375 -4.5 C 4.296875 -4.382812 4.078125 -4.304688 3.828125 -4.265625 L 3.828125 -4.25 C 4.109375 -4.21875 4.363281 -4.144531 4.59375 -4.03125 C 4.820312 -3.925781 5.019531 -3.789062 5.1875 -3.625 C 5.351562 -3.457031 5.484375 -3.257812 5.578125 -3.03125 C 5.671875 -2.8125 5.71875 -2.570312 5.71875 -2.3125 Z M 5.71875 -2.3125 "/></g></g></g><g clip-path="url(#5de90eb21d)"><g clip-path="url(#79b486afc6)"><path fill="#919191" d="M 16.972656 0 L 124.484375 0 L 124.484375 29.03125 L 16.972656 29.03125 Z M 16.972656 0 " fill-opacity="1" fill-rule="nonzero"/></g></g><g fill="#ffffff" fill-opacity="1"><g transform="translate(41.345525, 20.322582)"><g><path d="M 3.671875 0 L 3.671875 -4.03125 L 0.0625 -11.390625 L 2.796875 -11.390625 L 4 -8.75 L 4.875 -6.515625 L 5.015625 -6.515625 L 5.890625 -8.75 L 7.09375 -11.390625 L 9.71875 -11.390625 L 6.125 -4.03125 L 6.125 0 Z M 3.671875 0 "/></g></g></g><g fill="#ffffff" fill-opacity="1"><g transform="translate(51.130323, 20.322582)"><g><path d="M 5.125 0.203125 C 3.707031 0.203125 2.632812 -0.1875 1.90625 -0.96875 C 1.175781 -1.757812 0.8125 -2.828125 0.8125 -4.171875 C 0.8125 -4.859375 0.90625 -5.472656 1.09375 -6.015625 C 1.289062 -6.566406 1.566406 -7.035156 1.921875 -7.421875 C 2.273438 -7.816406 2.703125 -8.113281 3.203125 -8.3125 C 3.710938 -8.507812 4.28125 -8.609375 4.90625 -8.609375 C 5.539062 -8.609375 6.109375 -8.507812 6.609375 -8.3125 C 7.109375 -8.113281 7.53125 -7.828125 7.875 -7.453125 C 8.226562 -7.085938 8.5 -6.640625 8.6875 -6.109375 C 8.875 -5.578125 8.96875 -4.988281 8.96875 -4.34375 L 8.96875 -3.625 L 3.21875 -3.625 L 3.21875 -3.46875 C 3.21875 -2.925781 3.382812 -2.488281 3.71875 -2.15625 C 4.050781 -1.820312 4.546875 -1.65625 5.203125 -1.65625 C 5.703125 -1.65625 6.128906 -1.75 6.484375 -1.9375 C 6.847656 -2.132812 7.160156 -2.390625 7.421875 -2.703125 L 8.734375 -1.28125 C 8.398438 -0.882812 7.9375 -0.535156 7.34375 -0.234375 C 6.757812 0.0546875 6.019531 0.203125 5.125 0.203125 Z M 4.921875 -6.890625 C 4.398438 -6.890625 3.984375 -6.726562 3.671875 -6.40625 C 3.367188 -6.082031 3.21875 -5.648438 3.21875 -5.109375 L 3.21875 -4.96875 L 6.609375 -4.96875 L 6.609375 -5.109375 C 6.609375 -5.660156 6.457031 -6.09375 6.15625 -6.40625 C 5.851562 -6.726562 5.441406 -6.890625 4.921875 -6.890625 Z M 4.921875 -6.890625 "/></g></g></g><g fill="#ffffff" fill-opacity="1"><g transform="translate(60.915121, 20.322582)"><g><path d="M 7.9375 0 C 7.4375 0 7.035156 -0.125 6.734375 -0.375 C 6.429688 -0.632812 6.253906 -1.003906 6.203125 -1.484375 L 6.125 -1.484375 C 5.96875 -0.929688 5.660156 -0.507812 5.203125 -0.21875 C 4.753906 0.0625 4.207031 0.203125 3.5625 0.203125 C 2.738281 0.203125 2.078125 -0.015625 1.578125 -0.453125 C 1.085938 -0.898438 0.84375 -1.519531 0.84375 -2.3125 C 0.84375 -3.195312 1.160156 -3.847656 1.796875 -4.265625 C 2.441406 -4.691406 3.382812 -4.90625 4.625 -4.90625 L 5.984375 -4.90625 L 5.984375 -5.328125 C 5.984375 -5.828125 5.863281 -6.203125 5.625 -6.453125 C 5.394531 -6.710938 5.003906 -6.84375 4.453125 -6.84375 C 3.941406 -6.84375 3.523438 -6.742188 3.203125 -6.546875 C 2.890625 -6.359375 2.617188 -6.109375 2.390625 -5.796875 L 1.078125 -6.96875 C 1.359375 -7.445312 1.800781 -7.835938 2.40625 -8.140625 C 3.007812 -8.453125 3.785156 -8.609375 4.734375 -8.609375 C 5.878906 -8.609375 6.773438 -8.34375 7.421875 -7.8125 C 8.078125 -7.289062 8.40625 -6.5 8.40625 -5.4375 L 8.40625 -1.75 L 9.328125 -1.75 L 9.328125 0 Z M 4.46875 -1.390625 C 4.894531 -1.390625 5.253906 -1.488281 5.546875 -1.6875 C 5.835938 -1.894531 5.984375 -2.195312 5.984375 -2.59375 L 5.984375 -3.609375 L 4.703125 -3.609375 C 3.710938 -3.609375 3.21875 -3.273438 3.21875 -2.609375 L 3.21875 -2.28125 C 3.21875 -1.988281 3.332031 -1.765625 3.5625 -1.609375 C 3.789062 -1.460938 4.09375 -1.390625 4.46875 -1.390625 Z M 4.46875 -1.390625 "/></g></g></g><g fill="#ffffff" fill-opacity="1"><g transform="translate(70.699919, 20.322582)"><g><path d="M 1.203125 -1.875 L 3.140625 -1.875 L 3.140625 -6.546875 L 1.203125 -6.546875 L 1.203125 -8.421875 L 5.5625 -8.421875 L 5.5625 -6.03125 L 5.671875 -6.03125 C 5.753906 -6.34375 5.863281 -6.640625 6 -6.921875 C 6.132812 -7.210938 6.304688 -7.46875 6.515625 -7.6875 C 6.722656 -7.914062 6.976562 -8.09375 7.28125 -8.21875 C 7.59375 -8.351562 7.957031 -8.421875 8.375 -8.421875 L 9.171875 -8.421875 L 9.171875 -6.203125 L 7.375 -6.203125 C 6.769531 -6.203125 6.316406 -6.023438 6.015625 -5.671875 C 5.710938 -5.316406 5.5625 -4.882812 5.5625 -4.375 L 5.5625 -1.875 L 8.328125 -1.875 L 8.328125 0 L 1.203125 0 Z M 1.203125 -1.875 "/></g></g></g><g fill="#ffffff" fill-opacity="1"><g transform="translate(80.484717, 20.322582)"><g/></g></g><g fill="#ffffff" fill-opacity="1"><g transform="translate(90.269515, 20.322582)"><g><path d="M 5.53125 0 L 5.53125 -2.1875 L 0.40625 -2.1875 L 0.40625 -4.28125 L 4.9375 -11.390625 L 7.875 -11.390625 L 7.875 -4.078125 L 9.34375 -4.078125 L 9.34375 -2.1875 L 7.875 -2.1875 L 7.875 0 Z M 2.375 -4.078125 L 5.53125 -4.078125 L 5.53125 -8.859375 L 5.390625 -8.859375 Z M 2.375 -4.078125 "/></g></g></g><g clip-path="url(#3ee0b03b5d)"><g clip-path="url(#12869ed908)"><path fill="#cb6ce6" d="M 2.078125 0 L 23.773438 0 L 23.773438 29.066406 L 2.078125 29.066406 Z M 2.078125 0 " fill-opacity="1" fill-rule="nonzero"/></g></g><g clip-path="url(#2cf19e219a)"><path fill="#919191" d="M 16.972656 0 L 25.273438 0 L 25.273438 29.015625 L 16.972656 29.015625 Z M 16.972656 0 " fill-opacity="1" fill-rule="nonzero"/></g></svg>